# xmcd CD database file
#
# Track frame offsets:
#	150
#	16462
#	29623
#	45574
#	57840
#	66118
#	74198
#	88147
#	94612
#	108664
#	115515
#	132511
#	147383
#	167504
#	176015
#
# Disc length: 2552 seconds
#
# Revision: 0
# Processed by: cddbd v1.5.1PL2 Copyright (c) Steve Scherf et al.
# Submitted via: CDex 1.51
#
DISCID=da09f60f
DTITLE=Dave Bailey Quartett - Traditional Jazz
DYEAR=1900
DGENRE=Jazz
TTITLE0=Lousian-I-Ay
TTITLE1=Make me a Pallet on the Floor
TTITLE2=Summer Set
TTITLE3=As Long as i Live
TTITLE4=Burgundy Street Blues
TTITLE5=ST. Louis Blues
TTITLE6=Lady be Good
TTITLE7=Someday
TTITLE8=Baby Wont´t you Please come Home
TTITLE9=Bass-Time-Line
TTITLE10=Please Don´t talk about me
TTITLE11=Just a closer walk with thee
TTITLE12=When you wore al tulip
TTITLE13=Shine
TTITLE14=Just you, just me
EXTD=
EXTT0=
EXTT1=
EXTT2=
EXTT3=
EXTT4=
EXTT5=
EXTT6=
EXTT7=
EXTT8=
EXTT9=
EXTT10=
EXTT11=
EXTT12=
EXTT13=
EXTT14=
PLAYORDER=
